<svg xmlns="http://www.w3.org/2000/svg" version="1.1" xmlns:xlink="http://www.w3.org/1999/xlink" xmlns:svgjs="http://svgjs.dev/svgjs" width="1000" height="1000" viewBox="0 0 1000 1000"><rect width="1000" height="1000" fill="#ffffff"></rect><g transform="matrix(0.7,0,0,0.7,149.57576873545514,428.6153284424106)"><svg viewBox="0 0 396 81" data-background-color="#ffffff" preserveAspectRatio="xMidYMid meet" height="204" width="1000" xmlns="http://www.w3.org/2000/svg" xmlns:xlink="http://www.w3.org/1999/xlink"><g id="tight-bounds" transform="matrix(1,0,0,1,0.23999368679966437,-0.008694704728696934)"><svg viewBox="0 0 395.52 81.0173894094574" height="81.0173894094574" width="395.52"><g><svg viewBox="0 0 395.52 81.0173894094574" height="81.0173894094574" width="395.52"><g><svg viewBox="0 0 395.52 81.0173894094574" height="81.0173894094574" width="395.52"><g id="textblocktransform"><svg viewBox="0 0 395.52 81.0173894094574" height="81.0173894094574" width="395.52" id="textblock"><g><svg viewBox="0 0 395.52 81.0173894094574" height="81.0173894094574" width="395.52"><g transform="matrix(1,0,0,1,0,0)"><svg width="395.52" viewBox="2 -37 229.42999267578125 47" height="81.0173894094574" data-palette-color="#000000"><path d="M15 0.5L15 0.5Q11.5 0.5 8.7-0.38 5.9-1.25 3.35-3.45L3.35-3.45Q2.7-4 2.35-4.7 2-5.4 2-6.1L2-6.1Q2-7.25 2.83-8.13 3.65-9 4.9-9L4.9-9Q5.85-9 6.6-8.4L6.6-8.4Q8.5-6.85 10.38-6.05 12.25-5.25 15-5.25L15-5.25Q16.85-5.25 18.4-5.83 19.95-6.4 20.9-7.38 21.85-8.35 21.85-9.6L21.85-9.6Q21.85-11.1 20.95-12.15 20.05-13.2 18.2-13.93 16.35-14.65 13.5-15.05L13.5-15.05Q10.8-15.45 8.75-16.28 6.7-17.1 5.33-18.38 3.95-19.65 3.25-21.38 2.55-23.1 2.55-25.25L2.55-25.25Q2.55-28.5 4.23-30.8 5.9-33.1 8.75-34.3 11.6-35.5 15.05-35.5L15.05-35.5Q18.3-35.5 21.08-34.52 23.85-33.55 25.6-32.05L25.6-32.05Q27.05-30.9 27.05-29.4L27.05-29.4Q27.05-28.3 26.2-27.4 25.35-26.5 24.2-26.5L24.2-26.5Q23.45-26.5 22.85-26.95L22.85-26.95Q22.05-27.65 20.7-28.28 19.35-28.9 17.85-29.33 16.35-29.75 15.05-29.75L15.05-29.75Q12.9-29.75 11.43-29.2 9.95-28.65 9.2-27.7 8.45-26.75 8.45-25.5L8.45-25.5Q8.45-24 9.33-23.03 10.2-22.05 11.85-21.48 13.5-20.9 15.8-20.45L15.8-20.45Q18.8-19.9 21.08-19.15 23.35-18.4 24.85-17.23 26.35-16.05 27.1-14.28 27.85-12.5 27.85-9.95L27.85-9.95Q27.85-6.7 26.05-4.35 24.25-2 21.33-0.75 18.4 0.5 15 0.5ZM33.4-26.25L33.4-26.25 45.25-26.25Q46.45-26.25 47.25-25.45 48.05-24.65 48.05-23.45L48.05-23.45Q48.05-22.3 47.25-21.53 46.45-20.75 45.25-20.75L45.25-20.75 33.4-20.75Q32.2-20.75 31.4-21.55 30.6-22.35 30.6-23.55L30.6-23.55Q30.6-24.7 31.4-25.48 32.2-26.25 33.4-26.25ZM38.75-32.5L38.75-32.5Q40.05-32.5 40.87-31.63 41.7-30.75 41.7-29.45L41.7-29.45 41.7-7.2Q41.7-6.5 41.97-6.05 42.25-5.6 42.72-5.4 43.2-5.2 43.75-5.2L43.75-5.2Q44.35-5.2 44.85-5.43 45.35-5.65 46-5.65L46-5.65Q46.7-5.65 47.27-5 47.85-4.35 47.85-3.2L47.85-3.2Q47.85-1.8 46.32-0.9 44.8 0 43.05 0L43.05 0Q42 0 40.72-0.18 39.45-0.35 38.32-1.03 37.2-1.7 36.45-3.1 35.7-4.5 35.7-6.95L35.7-6.95 35.7-29.45Q35.7-30.75 36.57-31.63 37.45-32.5 38.75-32.5ZM73.4-26.75L73.4-26.75Q74.7-26.75 75.55-25.88 76.4-25 76.4-23.7L76.4-23.7 76.4-2.45Q76.4 2.15 74.67 4.88 72.95 7.6 70.05 8.8 67.15 10 63.55 10L63.55 10Q61.95 10 60.15 9.75 58.34 9.5 57.2 9L57.2 9Q55.7 8.35 55.12 7.38 54.55 6.4 54.9 5.3L54.9 5.3Q55.34 3.85 56.34 3.33 57.34 2.8 58.45 3.2L58.45 3.2Q59.25 3.45 60.55 3.98 61.84 4.5 63.55 4.5L63.55 4.5Q65.84 4.5 67.37 3.88 68.9 3.25 69.67 1.78 70.45 0.3 70.45-2.25L70.45-2.25 70.45-5.6 71.5-4.4Q70.65-2.75 69.37-1.68 68.09-0.6 66.34-0.05 64.59 0.5 62.34 0.5L62.34 0.5Q59.7 0.5 57.72-0.73 55.75-1.95 54.65-4.13 53.55-6.3 53.55-9.1L53.55-9.1 53.55-23.7Q53.55-25 54.4-25.88 55.25-26.75 56.55-26.75L56.55-26.75Q57.84-26.75 58.7-25.88 59.55-25 59.55-23.7L59.55-23.7 59.55-10.9Q59.55-7.65 60.97-6.33 62.4-5 64.95-5L64.95-5Q66.7-5 67.9-5.68 69.09-6.35 69.75-7.68 70.4-9 70.4-10.9L70.4-10.9 70.4-23.7Q70.4-25 71.25-25.88 72.09-26.75 73.4-26.75ZM89.39-33.95L89.39-3.05Q89.39-1.75 88.52-0.88 87.64 0 86.34 0L86.34 0Q85.09 0 84.24-0.88 83.39-1.75 83.39-3.05L83.39-3.05 83.39-33.95Q83.39-35.25 84.27-36.13 85.14-37 86.44-37L86.44-37Q87.74-37 88.57-36.13 89.39-35.25 89.39-33.95L89.39-33.95ZM108.24 0.5L108.24 0.5Q103.99 0.5 100.87-1.28 97.74-3.05 96.07-6.1 94.39-9.15 94.39-13L94.39-13Q94.39-17.5 96.22-20.68 98.04-23.85 100.99-25.55 103.94-27.25 107.24-27.25L107.24-27.25Q109.79-27.25 112.07-26.2 114.34-25.15 116.09-23.33 117.84-21.5 118.87-19.1 119.89-16.7 119.89-14L119.89-14Q119.84-12.8 118.94-12.05 118.04-11.3 116.84-11.3L116.84-11.3 97.74-11.3 96.24-16.3 114.59-16.3 113.49-15.3 113.49-16.65Q113.39-18.1 112.47-19.25 111.54-20.4 110.17-21.08 108.79-21.75 107.24-21.75L107.24-21.75Q105.74-21.75 104.44-21.35 103.14-20.95 102.19-20 101.24-19.05 100.69-17.45 100.14-15.85 100.14-13.4L100.14-13.4Q100.14-10.7 101.27-8.83 102.39-6.95 104.17-5.98 105.94-5 107.94-5L107.94-5Q109.79-5 110.89-5.3 111.99-5.6 112.67-6.03 113.34-6.45 113.89-6.75L113.89-6.75Q114.79-7.2 115.59-7.2L115.59-7.2Q116.69-7.2 117.42-6.45 118.14-5.7 118.14-4.7L118.14-4.7Q118.14-3.35 116.74-2.25L116.74-2.25Q115.44-1.15 113.09-0.33 110.74 0.5 108.24 0.5ZM164.24-35.15L164.24-35.15Q165.39-35.15 166.44-34.27 167.49-33.4 167.49-31.9L167.49-31.9Q167.49-31.45 167.34-30.9L167.34-30.9 157.49-1.9Q157.19-1 156.41-0.53 155.64-0.05 154.79 0L154.79 0Q153.94 0 153.11-0.5 152.29-1 151.84-1.95L151.84-1.95 144.44-18.75 144.89-18.45 137.59-1.95Q137.14-1 136.31-0.5 135.49 0 134.64 0L134.64 0Q133.84-0.05 133.04-0.53 132.24-1 131.94-1.9L131.94-1.9 122.09-30.9Q121.94-31.45 121.94-31.9L121.94-31.9Q121.94-33.4 123.01-34.27 124.09-35.15 125.24-35.15L125.24-35.15Q126.19-35.15 127.01-34.65 127.84-34.15 128.14-33.2L128.14-33.2 136.09-9.1 134.99-9.15 142.09-26.2Q142.49-27.1 143.24-27.63 143.99-28.15 144.94-28.1L144.94-28.1Q145.89-28.15 146.64-27.63 147.39-27.1 147.74-26.2L147.74-26.2 154.24-9.9 153.44-9.4 161.29-33.2Q161.59-34.15 162.44-34.65 163.29-35.15 164.24-35.15ZM177.19-23.7L177.19-3.05Q177.19-1.75 176.34-0.88 175.49 0 174.19 0L174.19 0Q172.89 0 172.04-0.88 171.19-1.75 171.19-3.05L171.19-3.05 171.19-23.7Q171.19-25 172.04-25.88 172.89-26.75 174.19-26.75L174.19-26.75Q175.49-26.75 176.34-25.88 177.19-25 177.19-23.7L177.19-23.7ZM174.14-30L174.14-30Q172.44-30 171.74-30.55 171.04-31.1 171.04-32.5L171.04-32.5 171.04-33.45Q171.04-34.9 171.81-35.43 172.59-35.95 174.19-35.95L174.19-35.95Q175.94-35.95 176.64-35.4 177.34-34.85 177.34-33.45L177.34-33.45 177.34-32.5Q177.34-31.05 176.59-30.53 175.84-30 174.14-30ZM181.78-4.15L181.78-4.15Q181.28-4.85 181.33-5.95 181.38-7.05 182.63-7.85L182.63-7.85Q183.43-8.35 184.33-8.28 185.23-8.2 186.08-7.35L186.08-7.35Q187.53-5.9 189.13-5.1 190.73-4.3 193.13-4.3L193.13-4.3Q193.88-4.35 194.78-4.53 195.68-4.7 196.36-5.33 197.03-5.95 197.03-7.25L197.03-7.25Q197.03-8.35 196.28-9 195.53-9.65 194.31-10.1 193.08-10.55 191.58-10.95L191.58-10.95Q190.03-11.4 188.41-11.95 186.78-12.5 185.43-13.38 184.08-14.25 183.23-15.7 182.38-17.15 182.38-19.35L182.38-19.35Q182.38-21.85 183.78-23.6 185.18-25.35 187.41-26.3 189.63-27.25 192.08-27.25L192.08-27.25Q193.63-27.25 195.33-26.88 197.03-26.5 198.58-25.68 200.13-24.85 201.18-23.5L201.18-23.5Q201.73-22.75 201.83-21.7 201.93-20.65 200.88-19.8L200.88-19.8Q200.13-19.2 199.13-19.28 198.13-19.35 197.48-19.95L197.48-19.95Q196.63-21.05 195.21-21.7 193.78-22.35 191.93-22.35L191.93-22.35Q191.18-22.35 190.31-22.18 189.43-22 188.78-21.43 188.13-20.85 188.13-19.6L188.13-19.6Q188.13-18.45 188.88-17.78 189.63-17.1 190.91-16.68 192.18-16.25 193.63-15.85L193.63-15.85Q195.13-15.45 196.68-14.9 198.23-14.35 199.53-13.45 200.83-12.55 201.63-11.13 202.43-9.7 202.43-7.5L202.43-7.5Q202.43-4.95 200.93-3.15 199.43-1.35 197.18-0.43 194.93 0.5 192.58 0.5L192.58 0.5Q189.63 0.5 186.68-0.53 183.73-1.55 181.78-4.15ZM219.78 0.5L219.78 0.5Q215.53 0.5 212.41-1.28 209.28-3.05 207.61-6.1 205.93-9.15 205.93-13L205.93-13Q205.93-17.5 207.76-20.68 209.58-23.85 212.53-25.55 215.48-27.25 218.78-27.25L218.78-27.25Q221.33-27.25 223.61-26.2 225.88-25.15 227.63-23.33 229.38-21.5 230.41-19.1 231.43-16.7 231.43-14L231.43-14Q231.38-12.8 230.48-12.05 229.58-11.3 228.38-11.3L228.38-11.3 209.28-11.3 207.78-16.3 226.13-16.3 225.03-15.3 225.03-16.65Q224.93-18.1 224.01-19.25 223.08-20.4 221.71-21.08 220.33-21.75 218.78-21.75L218.78-21.75Q217.28-21.75 215.98-21.35 214.68-20.95 213.73-20 212.78-19.05 212.23-17.45 211.68-15.85 211.68-13.4L211.68-13.4Q211.68-10.7 212.81-8.83 213.93-6.95 215.71-5.98 217.48-5 219.48-5L219.48-5Q221.33-5 222.43-5.3 223.53-5.6 224.21-6.03 224.88-6.45 225.43-6.75L225.43-6.75Q226.33-7.2 227.13-7.2L227.13-7.2Q228.23-7.2 228.96-6.45 229.68-5.7 229.68-4.7L229.68-4.7Q229.68-3.35 228.28-2.25L228.28-2.25Q226.98-1.15 224.63-0.33 222.28 0.5 219.78 0.5Z" opacity="1" transform="matrix(1,0,0,1,0,0)" fill="#000000" class="undefined-text-0" data-fill-palette-color="primary" id="text-0"></path></svg></g></svg></g></svg></g></svg></g></svg></g><defs></defs></svg><rect width="395.52" height="81.0173894094574" fill="none" stroke="none" visibility="hidden"></rect></g></svg></g></svg>